<?xml version="1.0" standalone="no"?><!DOCTYPE svg PUBLIC "-//W3C//DTD SVG 1.1//EN" "http://www.w3.org/Graphics/SVG/1.1/DTD/svg11.dtd"><svg t="1748502584330" class="icon" viewBox="0 0 1024 1024" version="1.1" xmlns="http://www.w3.org/2000/svg" p-id="8559" xmlns:xlink="http://www.w3.org/1999/xlink" width="32" height="32"><path d="M208.262527 875.097163c-13.982319 0-27.280641-2.508685-40.20777-6.055877v87.071999c0 13.262871 10.754186 24.019143 24.019143 24.019143h112.075431c13.260786 0 24.019143-10.754186 24.019143-24.019143v-61.261535c-21.762787-6.322803-42.04914-17.079075-59.042715-32.564936-19.151919 8.393562-39.788613 12.810349-60.863232 12.810349zM547.800368 901.187065c-4.650346 0-9.181827-0.650631-13.767528-1.036422v55.962642c0 13.262871 10.754186 24.019143 24.019143 24.019143h112.0942c13.262871 0 24.014972-10.754186 24.014972-24.019143v-139.95457c-30.487921 51.712685-84.761424 85.02835-146.360787 85.02835zM747.229322 616.758956c-109.49793 0-185.463318-152.283201-198.227789-271.315384-75.996668-10.053507-129.919832-54.021175-129.919831-110.088086 0-8.160002 1.305434-16.00303 3.478375-23.579132-16.657832 9.398704-30.640152 23.514487-40.174404 40.839633-16.05725-11.605012-35.459412-18.413703-56.333836-18.413703-48.567967 0-89.042662 36.712712-98.374636 85.485043-72.989583 8.981633-130.893694 68.722943-141.762574 145.624656C37.380026 472.871402 0 516.941254 0 570.714271c0 59.038544 44.958213 106.920429 100.434968 106.920429 1.605725 0 3.109267-0.417071 4.69831-0.500486-2.758927 10.153604-4.69831 20.688828-4.69831 31.776672 0 63.388599 48.267675 114.803078 107.827559 114.803078 27.895822 0 53.049399-11.573732 72.201318-30.070849 17.010258 33.280214 49.739937 56.162837 87.856094 56.162837 35.628326 0 66.718915-19.871368 84.548718-49.623157 22.209053 30.006203 56.262934 49.623157 94.931711 49.623157 60.610904 0 110.40089-47.498178 119.399205-109.34987 7.377993 1.205336 14.720536 2.39399 22.380052 2.39399 81.871119 0 148.202157-70.66441 148.202158-157.821909 0-1.972748-0.316974-3.845398-0.400389-5.801464-26.360999 23.182915-56.665408 37.532257-90.152072 37.532257z" p-id="8560"></path><path d="M911.926654 174.477657c-14.051136 0-27.430787 1.476433-39.82615 4.049763a63.161295 63.161295 0 0 0 7.659517-30.248104c0-35.048597-28.41299-63.461587-63.461587-63.461587a63.519977 63.519977 0 0 0-16.196968 2.093698c-6.005828-24.640579-28.844659-43.04177-56.419336-43.04177-26.909448 0-49.331207 17.573304-56.002265 41.333863a63.634672 63.634672 0 0 0-6.944239-0.385791c-35.048597 0-63.461587 28.41299-63.461587 63.461587a63.19049 63.19049 0 0 0 7.980662 30.811151c-13.183628-2.952866-27.572591-4.610725-42.71854-4.610725-61.899654 0-112.073346 27.261873-112.073346 60.87783 0 33.63681 50.175777 60.882 112.073346 60.882 5.922414 0 11.5925-0.469205 17.258415-0.955094-0.383706 5.386477-1.317946 10.570675-1.317946 16.073933 0 99.882348 66.600049 254.021517 148.750607 254.021517 82.14013 0 148.738094-154.139169 148.738094-254.021517 0-5.505343-0.93424-10.687455-1.336714-16.073933 5.670086 0.485888 11.354769 0.955094 17.293866 0.955094 61.899654 0 112.073346-27.24519 112.073346-60.882 0.004171-33.618042-50.171606-60.879915-112.069175-60.879915z m-219.604784 161.763234a19.994404 19.994404 0 0 1-20.004831-20.000659 19.996489 19.996489 0 0 1 20.004831-20.004831 19.992318 19.992318 0 0 1 20.004831 20.004831 19.992318 19.992318 0 0 1-20.004831 20.000659z m109.785709 0c-11.03988 0-19.986062-8.946182-19.986062-20.000659 0-11.056563 8.946182-20.004831 19.986062-20.004831 11.071161 0 20.021513 8.946182 20.021514 20.004831-0.002085 11.054478-8.952438 20.00066-20.021514 20.000659z" p-id="8561"></path></svg>